<?xml version="1.0" encoding="UTF-8" standalone="no"?>
<svg width="192px" height="256px" viewBox="0 0 192 256" version="1.1" xmlns="http://www.w3.org/2000/svg" xmlns:xlink="http://www.w3.org/1999/xlink">
    <!-- Generator: Sketch 40.2 (33826) - http://www.bohemiancoding.com/sketch -->
    <title>Group</title>
    <desc>Created with Sketch.</desc>
    <defs></defs>
    <g id="Page-1" stroke="none" stroke-width="1" fill="none" fill-rule="evenodd">
        <g id="Artboard" transform="translate(-32.000000, 0.000000)" fill="#000000">
            <g id="Group" transform="translate(32.000000, 0.000000)">
                <g id="base">
                    <rect id="Rectangle" x="0" y="0" width="16" height="256"></rect>
                    <rect id="Rectangle-Copy-5" x="106" y="0" width="16" height="80"></rect>
                    <rect id="Rectangle-Copy-6" transform="translate(149.000000, 78.000000) rotate(-90.000000) translate(-149.000000, -78.000000) " x="141" y="35" width="16" height="86"></rect>
                    <rect id="Rectangle-Copy" x="176" y="64" width="16" height="192"></rect>
                    <rect id="Rectangle-Copy-2" transform="translate(64.000000, 8.000000) rotate(-270.000000) translate(-64.000000, -8.000000) " x="56" y="-56" width="16" height="128"></rect>
                    <rect id="Rectangle-Copy-4" transform="translate(96.000000, 248.000000) rotate(-270.000000) translate(-96.000000, -248.000000) " x="88" y="152" width="16" height="192"></rect>
                    <polygon id="Rectangle-Copy-3" transform="translate(154.425130, 37.625132) rotate(-225.000000) translate(-154.425130, -37.625132) " points="146.513301 -7.58483985 162.42513 -6.88705528 162.42513 82.8351033 146.42513 82.8351033"></polygon>
                </g>
                <g id="lines" transform="translate(48.000000, 96.000000)">
                    <rect id="Rectangle-3" x="0" y="0" width="32" height="16"></rect>
                    <rect id="Rectangle-3-Copy" x="0" y="32" width="96" height="16"></rect>
                    <rect id="Rectangle-3-Copy-2" x="0" y="64" width="64" height="16"></rect>
                    <rect id="Rectangle-3-Copy-3" x="0" y="96" width="96" height="16"></rect>
                </g>
            </g>
        </g>
    </g>
</svg>